<svg width="20" height="20" viewBox="0 0 20 20" fill="none" xmlns="http://www.w3.org/2000/svg">
<g clip-path="url(#clip0_1_2)">
<path d="M13.9845 2.95483C13.4388 2.95483 13.165 2.95483 12.9162 2.86233L12.8135 2.81978C12.5721 2.70878 12.3787 2.51638 11.9921 2.12973C11.1022 1.23988 10.6573 0.794958 10.1106 0.753333C10.0367 0.748889 9.96256 0.748889 9.88863 0.753333C9.34196 0.794958 8.89703 1.23988 8.00718 2.12973C7.62053 2.51638 7.42721 2.70971 7.18578 2.81978L7.08403 2.86233C6.83428 2.95483 6.56141 2.95483 6.01473 2.95483H5.91298C4.51901 2.95483 3.82156 2.95483 3.38773 3.38773C2.95391 3.82063 2.95483 4.51901 2.95483 5.91298V6.01473C2.95483 6.56048 2.95483 6.83428 2.86233 7.08311C2.84877 7.11826 2.83458 7.15248 2.81978 7.18578C2.70878 7.42721 2.51638 7.62053 2.12973 8.00718C1.23988 8.89703 0.794958 9.34196 0.753333 9.88863C0.748889 9.96256 0.748889 10.0367 0.753333 10.1106C0.794958 10.6573 1.23988 11.1022 2.12973 11.9921C2.51638 12.3787 2.70971 12.5721 2.81978 12.8135C2.8352 12.8468 2.84938 12.8807 2.86233 12.9152C2.95483 13.165 2.95483 13.4379 2.95483 13.9845V14.0863C2.95483 15.4803 2.95483 16.1777 3.38773 16.6115C3.82063 17.0454 4.51901 17.0444 5.91298 17.0444H6.01473C6.56048 17.0444 6.83428 17.0444 7.08311 17.1369C7.11826 17.1499 7.15248 17.1641 7.18578 17.1795C7.42721 17.2905 7.62053 17.4829 8.00718 17.8695C8.89703 18.7594 9.34196 19.2043 9.88863 19.2459C9.96263 19.2515 10.0366 19.2515 10.1106 19.2459C10.6573 19.2043 11.1022 18.7594 11.9921 17.8695C12.3787 17.4829 12.5721 17.2905 12.8135 17.1795C12.8468 17.1641 12.8807 17.1499 12.9152 17.1369C13.165 17.0444 13.4379 17.0444 13.9845 17.0444H14.0863C15.4803 17.0444 16.1777 17.0444 16.6115 16.6115C17.0454 16.1786 17.0444 15.4803 17.0444 14.0863V13.9845C17.0444 13.4388 17.0444 13.165 17.1369 12.9162C17.1499 12.881 17.1641 12.8468 17.1795 12.8135C17.2905 12.5721 17.4829 12.3787 17.8695 11.9921C18.7594 11.1022 19.2043 10.6573 19.2459 10.1106C19.2515 10.0366 19.2515 9.96263 19.2459 9.88863C19.2043 9.34196 18.7594 8.89703 17.8695 8.00718C17.4829 7.62053 17.2905 7.42721 17.1795 7.18578L17.1369 7.08403C17.0444 6.83428 17.0444 6.56141 17.0444 6.01473V5.91298C17.0444 4.51901 17.0444 3.82156 16.6115 3.38773C16.1786 2.95391 15.4803 2.95483 14.0863 2.95483H13.9845Z" stroke="currentColor" stroke-width="1.5"/>
<path d="M6.76221 14.1623C7.0903 13.594 7.56223 13.1222 8.13055 12.7942C8.69886 12.4662 9.34353 12.2936 9.99971 12.2938C11.3835 12.2938 12.5906 13.0449 13.2372 14.1623M11.8497 8.1498C11.8497 8.64045 11.6548 9.11101 11.3079 9.45795C10.9609 9.80489 10.4904 9.9998 9.99971 9.9998C9.50906 9.9998 9.0385 9.80489 8.69156 9.45795C8.34462 9.11101 8.14971 8.64045 8.14971 8.1498C8.14971 7.65915 8.34462 7.1886 8.69156 6.84166C9.0385 6.49472 9.50906 6.2998 9.99971 6.2998C10.4904 6.2998 10.9609 6.49472 11.3079 6.84166C11.6548 7.1886 11.8497 7.65915 11.8497 8.1498Z" stroke="currentColor" stroke-width="1.5" stroke-linecap="round"/>
</g>
<defs>
<clipPath id="clip0_1_2">
<rect width="20" height="20" fill="white"/>
</clipPath>
</defs>
</svg>
